<svg id="eaAMuf6ijSp1" xmlns="http://www.w3.org/2000/svg" xmlns:xlink="http://www.w3.org/1999/xlink" viewBox="0 0 1080 1080" shape-rendering="geometricPrecision" text-rendering="geometricPrecision"><g transform="matrix(1.204221 0 0 1.204221 540 540)"><rect width="1080" height="1080" rx="0" ry="0" transform="translate(-540-540)" fill="#fff" fill-opacity="0"/></g><g transform="matrix(2.076625 0 0 2.107925 540 540)"><circle r="256" fill="#4f72ff"/></g><g transform="matrix(3.432106 0 0 3.432106 540.69 540.69)"><path d="M428.033,597.57c-.001,15.794,6.01,31.583,18.034,43.609c24.045,24.044,63.166,24.044,87.212,0L650.272,524.185c2.922544-2.959073,2.907417-7.722678-.03386-10.663131s-7.704887-2.954243-10.66314-.030869L522.583,630.485c-18.146,18.145-47.673,18.145-65.82-.002-18.146-18.146-18.146-47.671,0-65.82L574.81,446.615c6.589-6.589,15.349-10.218,24.665-10.218c9.317,0,18.078,3.627,24.664,10.216c6.589,6.59,10.218,15.349,10.218,24.665c0,9.318-3.629,18.077-10.216,24.664L522.253,597.83c-9.054,9.054-23.786,9.054-32.838,0-9.054-9.051-9.052-23.786,0-32.836l88.364-88.366c2.922544-2.959073,2.907417-7.722678-.03386-10.663131s-7.704887-2.954243-10.66314-.030869l-88.364,88.364c-14.953,14.953-14.948,39.281.002,54.23c14.951,14.952,39.277,14.952,54.23,0L634.837,506.64c9.444-9.444,14.647-22.004,14.647-35.36c0-13.36-5.2-25.917-14.647-35.361-9.444-9.444-22.002-14.647-35.36-14.647-13.359,0-25.917,5.2-35.361,14.647L446.068,553.965c-12.022,12.02-18.033,27.815-18.035,43.606Z" transform="translate(-540.24-540.24)" fill="#fff"/></g><g transform="matrix(3.432106 0 0 3.432106 572.55 695.41)"><path d="M639.623,513.72L522.631,630.715c-18.144,18.143-47.666,18.146-65.812.006l-10.696,10.697c24.045,24.036,63.162,24.034,87.204-.008L650.321,524.416c2.952518-2.954008,2.951623-7.742097-.002-10.695-1.417959-1.419166-3.341849-2.216546-5.348-2.216546s-3.930041.79738-5.348,2.216546Z" transform="translate(-549.33-585.47)" fill="#e2e2e2"/></g><g transform="matrix(3.430626 0 0 3.454525 624.577622 512.010237)"><path d="M634.48,471.34c0,9.318-3.627,18.077-10.216,24.665L522.377,597.89c-9.052,9.051-23.778,9.053-32.83.007L478.85,608.594c14.951,14.944,39.273,14.943,54.224-.008L634.96,506.7c9.444-9.445,14.647-22.004,14.647-35.361c0-9.375-2.572-18.35-7.366-26.138l-11.135,11.136c2.229708,4.687029,3.382206,9.813648,3.373,15.004Z" transform="matrix(1.001037 0.001807-.001806 1.000422-564.519725-533.368734)" fill="#e2e2e2"/></g></svg>
